<svg width="52" height="48" viewBox="0 0 52 48" fill="none" xmlns="http://www.w3.org/2000/svg">
<rect x="0.5" y="0.5" width="51" height="47" rx="3.5" fill="white" stroke="white"/>
<path d="M36 24.4308C36 23.5918 35.9319 22.9796 35.7846 22.3447H26.2041V26.1315H31.8276C31.7143 27.0725 31.1021 28.4898 29.7415 29.4421L29.7224 29.5689L32.7516 31.9156L32.9615 31.9365C34.8889 30.1564 36 27.5374 36 24.4308Z" fill="#1D69E5"/>
<path d="M26.2041 34.4082C28.9591 34.4082 31.272 33.5011 32.9614 31.9365L29.7414 29.4421C28.8798 30.043 27.7233 30.4625 26.2041 30.4625C23.5057 30.4625 21.2154 28.6825 20.399 26.2222L20.2794 26.2324L17.1296 28.67L17.0884 28.7845C18.7664 32.1179 22.2131 34.4082 26.2041 34.4082Z" fill="#5594EF"/>
<path d="M20.399 26.2222C20.1836 25.5873 20.059 24.907 20.059 24.2041C20.059 23.5011 20.1836 22.8209 20.3877 22.1859L20.382 22.0507L17.1928 19.5739L17.0884 19.6235C16.3968 21.0068 16 22.5601 16 24.2041C16 25.8481 16.3968 27.4013 17.0884 28.7846L20.399 26.2222Z" fill="#5594EF"/>
<path d="M26.2041 17.9456C28.1201 17.9456 29.4126 18.7732 30.1496 19.4649L33.0294 16.6531C31.2608 15.0091 28.9591 14 26.2041 14C22.2131 14 18.7664 16.2902 17.0884 19.6235L20.3877 22.1859C21.2154 19.7256 23.5057 17.9456 26.2041 17.9456Z" fill="#2475EA"/>
</svg>
